<?xml version="1.0" encoding="UTF-8"?>
<svg version="1.1" xmlns="http://www.w3.org/2000/svg" width="512" height="512">
<path d="M0 0 C0.83580534 -0.00581376 1.67161068 -0.01162753 2.53274345 -0.01761746 C5.34015508 -0.03224329 8.14669596 -0.01832019 10.95410156 -0.00457001 C12.98441007 -0.00917789 15.01471525 -0.01553005 17.04501343 -0.02347898 C22.62953845 -0.04021076 28.21379082 -0.03190836 33.79831696 -0.01953411 C39.8188514 -0.01050172 45.83933823 -0.02444435 51.85986328 -0.0354538 C62.97410283 -0.05223318 74.08826718 -0.05074998 85.20250726 -0.03980792 C95.4696496 -0.02974935 105.73676 -0.02711718 116.00390625 -0.0318985 C117.02510539 -0.03235681 117.02510539 -0.03235681 118.06693482 -0.03282438 C120.83045758 -0.03406971 123.59398033 -0.03534331 126.35750306 -0.03666343 C152.28635849 -0.04890198 178.21515843 -0.03780156 204.1440053 -0.01627585 C227.18490045 0.00270687 250.22570718 0.00100837 273.26660156 -0.01811981 C299.1477494 -0.03953406 325.02884819 -0.04803406 350.91000366 -0.03567076 C353.66851806 -0.03438787 356.42703246 -0.03313651 359.18554688 -0.0318985 C359.86477337 -0.03158219 360.54399987 -0.03126588 361.24380898 -0.03093999 C371.50500068 -0.02638832 381.76615696 -0.03171449 392.02734375 -0.04181671 C403.69370525 -0.05324501 415.35998258 -0.05002744 427.02633476 -0.02869374 C432.98146366 -0.01816367 438.93641286 -0.01409491 444.89154053 -0.02729034 C450.33938626 -0.03917939 455.78688514 -0.03270918 461.23469925 -0.01138014 C463.20903809 -0.00689928 465.18340604 -0.00921341 467.15772629 -0.01888329 C469.83538893 -0.03099546 472.51185366 -0.01862507 475.18945312 0 C475.96131392 -0.00936466 476.73317471 -0.01872933 477.52842522 -0.02837777 C483.97640244 0.06165518 487.49255909 2.39247671 491.93713951 6.8554945 C495.09868146 12.13041614 494.15011409 18.93458685 494.11611938 24.86928558 C494.12216206 26.35711041 494.12994086 27.84492903 494.13930452 29.33273667 C494.15988758 33.41788039 494.1554953 37.50267353 494.14694333 41.58784616 C494.14201292 45.9949456 494.16003213 50.40196018 494.17501831 54.80902863 C494.20052874 63.4420212 494.20409761 72.0748894 494.19941778 80.70791332 C494.19585268 87.72525157 494.19934803 94.74255205 494.20786667 101.75988579 C494.20905705 102.75837975 494.21024742 103.75687371 494.21147387 104.78562507 C494.21389737 106.81404129 494.21632563 108.8424575 494.21875863 110.87087371 C494.2405164 129.8977954 494.23618166 148.92464621 494.22398894 167.9515719 C494.21365206 185.35632226 494.23615624 202.76084868 494.27418537 220.16555474 C494.31293481 238.03695548 494.32945535 255.90825027 494.32193887 273.77969331 C494.31811337 283.81302297 494.32310382 293.84616207 494.35136795 303.87945747 C494.37518842 312.42181485 494.37801392 320.9638644 494.35378762 329.50622598 C494.34200421 333.86393118 494.33982565 338.22107328 494.36379242 342.57874107 C494.38549241 346.57069562 494.37932784 350.56161639 494.35126905 354.55352237 C494.34596987 355.99494667 494.35072545 357.43645174 494.36674078 358.87779681 C494.44556864 366.50349067 494.09530975 372.30474391 489.66216409 378.66243428 C484.06421851 383.64707222 478.40058215 385.09784868 471.061059 385.01231575 C470.23566337 385.01872871 469.41026775 385.02514166 468.55986014 385.03174895 C465.79988008 385.04832415 463.04077091 385.03651046 460.28077698 385.02475739 C458.27975279 385.03079994 456.27873322 385.03857866 454.27772182 385.04794252 C448.78332916 385.06852626 443.28919716 385.06413297 437.794783 385.05558133 C431.86760534 385.05065121 425.94049079 385.06866965 420.01333618 385.08365631 C408.40344165 385.10916601 396.79363391 385.11274745 385.18371672 385.10805579 C375.74842829 385.10438937 366.31316703 385.10791084 356.877882 385.11650467 C355.52195496 385.11770947 354.16602791 385.11891187 352.81010086 385.12011188 C350.76681504 385.12192639 348.72352922 385.12374373 346.68024341 385.12557658 C327.68534179 385.14243336 308.69045039 385.15110852 289.69554234 385.14276314 C288.9796102 385.14245039 288.26367807 385.14213763 287.52605103 385.1418154 C283.89748287 385.14020386 280.26891476 385.13851231 276.64034665 385.1367888 C275.91971041 385.13644662 275.19907417 385.13610445 274.45660046 385.1357519 C272.99929979 385.13505859 271.54199913 385.13436153 270.08469846 385.13366073 C247.40593214 385.12294484 224.72732131 385.13881216 202.04858398 385.17572784 C176.56475027 385.21716106 151.08101288 385.23861473 125.59714359 385.23057687 C122.87989137 385.22978619 120.16263914 385.22906309 117.44538689 385.22838211 C116.44181313 385.22810992 116.44181313 385.22810992 115.41796515 385.22783222 C105.31920209 385.22550054 95.22053632 385.23879468 85.12179756 385.26000595 C73.6370513 385.28380258 62.15253395 385.28667826 50.66778464 385.26242562 C44.80736909 385.25062662 38.94737257 385.24850772 33.08698463 385.27243042 C27.72218779 385.29407577 22.35816164 385.28802932 16.9934014 385.25990705 C15.05271304 385.25459306 13.11196498 385.25940928 11.17133505 385.27537878 C-6.76706453 385.41274863 -6.76706453 385.41274863 -12.82119662 380.22116786 C-19.43650665 373.04739874 -18.97663502 366.43824362 -18.91320801 356.99700165 C-18.91781935 355.50617729 -18.92417384 354.01535749 -18.93211699 352.52454716 C-18.94880139 348.43585397 -18.94056812 344.34753466 -18.92817211 340.2588402 C-18.91912035 335.84637532 -18.93309192 331.43397464 -18.9440918 327.02152252 C-18.96187982 318.38097065 -18.9580359 309.74055775 -18.94644123 301.10000043 C-18.93740889 294.07837219 -18.93618205 287.05678291 -18.9405365 280.03515053 C-18.9414559 278.53631357 -18.9414559 278.53631357 -18.94239387 277.00719707 C-18.94367276 274.97732518 -18.94496962 272.94745331 -18.94628423 270.91758145 C-18.95769071 251.88310835 -18.94457495 232.84871231 -18.92308277 213.81425185 C-18.90520899 197.4785692 -18.90831808 181.14300024 -18.92675781 164.80731964 C-18.94815859 145.83956072 -18.95659496 126.87186931 -18.94430876 107.9041 C-18.94303455 105.88198762 -18.94177707 103.85987523 -18.9405365 101.83776283 C-18.9399194 100.84282821 -18.93930229 99.84789359 -18.93866649 98.82280944 C-18.93521142 91.80836189 -18.94104527 84.79395714 -18.95045471 77.77951622 C-18.96166714 69.23311814 -18.95865045 60.68686703 -18.93733174 52.14048582 C-18.92681156 47.7792127 -18.92271595 43.41818474 -18.93592834 39.05691338 C-18.94783797 35.06534465 -18.94131365 31.07424857 -18.92001814 27.08272279 C-18.915546 25.63802128 -18.91783211 24.19327993 -18.92752129 22.74860399 C-19.00265925 10.61571303 -19.00265925 10.61571303 -16.74852753 6.85465336 C-11.51528655 1.6034683 -7.34112214 -0.08906677 0 0 Z " fill="#23273A" transform="translate(18.4052734375,63.49663543701172)"/>
<path d="M0 0 C1.38286486 -0.00174502 2.76572843 -0.00524868 4.14858496 -0.01035666 C7.94332443 -0.01929415 11.73761169 -0.00331024 15.53229356 0.01675558 C19.62629561 0.03403403 23.72027228 0.0281836 27.81430054 0.02514648 C34.90571506 0.02304937 41.99698234 0.03559631 49.08835983 0.05809784 C59.34126827 0.09060998 69.59410552 0.10102405 79.84705992 0.10604981 C96.4818714 0.11480369 113.11660441 0.14142181 129.75137329 0.17926025 C145.91022346 0.21597792 162.06905232 0.24429088 178.22793579 0.2612915 C179.22401597 0.2623424 180.22009616 0.26339329 181.24636059 0.26447603 C186.24341644 0.26969619 191.24047245 0.27475102 196.23752856 0.27972364 C237.69126916 0.3211886 279.14486461 0.39492803 320.59854126 0.48101807 C320.59854126 21.60101807 320.59854126 42.72101807 320.59854126 64.48101807 C207.07854126 64.48101807 93.55854126 64.48101807 -23.40145874 64.48101807 C-23.40145874 10.48101807 -23.40145874 10.48101807 -19.40145874 4.48101807 C-13.83092028 -0.93371848 -7.29902598 -0.06633152 0 0 Z " fill="#939AB6" transform="translate(23.401458740234375,63.51898193359375)"/>
<path d="M0 0 C1.7872324 1.24344158 1.7872324 1.24344158 3.63563538 2.93278503 C4.33586885 3.57211157 5.03610233 4.2114381 5.75755501 4.87013817 C9.80177029 8.71131144 13.76552891 12.62694065 17.70483398 16.57543945 C18.64998654 17.51923377 19.595351 18.46281592 20.54090881 19.40620422 C23.08407016 21.9448453 25.6241051 24.48659227 28.16341281 27.02908731 C30.82798293 29.69620469 33.49500952 32.36086394 36.16163635 35.02592468 C40.63095871 39.49343412 45.09818225 43.96303409 49.56420898 48.43383789 C54.72932723 53.60441709 59.898065 58.7713571 65.06865829 63.93646079 C69.51564917 68.37891932 73.96069557 72.8233164 78.40411049 77.26935166 C81.05503394 79.92183464 83.70662979 82.57363594 86.35998344 85.22368813 C89.30982864 88.17011802 92.25558496 91.12060255 95.20092773 94.0715332 C96.082435 94.95101624 96.96394226 95.83049927 97.87216187 96.7366333 C98.66973404 97.5370253 99.46730621 98.3374173 100.28904724 99.1620636 C101.33398425 100.20756614 101.33398425 100.20756614 102.40003109 101.27418995 C105.13836966 104.22790498 105.48488566 106.83085413 105.42016602 110.84884644 C104.61724928 114.95959584 101.67532425 117.31981727 98.71875 120.09765625 C98.07184204 120.7356163 97.42493408 121.37357635 96.75842285 122.03086853 C94.69034689 124.06094072 92.59597738 126.06129012 90.5 128.0625 C89.12062027 129.41029459 87.74299638 130.75988866 86.3671875 132.11132812 C81.4142046 136.95164556 76.46257019 141.76395652 71.21029663 146.28077698 C67.30838928 149.68616144 63.61821485 153.2524576 59.97314453 156.92919922 C59.32169968 157.58210434 58.67025482 158.23500946 57.99906921 158.90769958 C56.60064121 160.30990163 55.20336832 161.71325649 53.80716324 163.11767197 C51.59885389 165.33884391 49.38734869 167.55678979 47.17501831 169.7739563 C42.4888513 174.47149035 37.80665286 179.17296763 33.125 183.875 C27.6772905 189.34630768 22.22796808 194.81598865 16.77444077 200.28149796 C14.59311395 202.46931817 12.4148123 204.6601205 10.23660278 206.8510437 C8.90804491 208.1832317 7.57934779 209.51528085 6.25048828 210.84716797 C5.34037743 211.76502831 5.34037743 211.76502831 4.41188049 212.70143127 C-0.75248948 217.8664573 -0.75248948 217.8664573 -4.83032227 218.30297852 C-8.76241833 217.92712307 -9.90924264 216.87679478 -12.71484375 214.15234375 C-13.5744873 213.32976074 -14.43413086 212.50717773 -15.31982422 211.65966797 C-16.64651123 210.34313232 -16.64651123 210.34313232 -18 209 C-18.8780127 208.14680176 -19.75602539 207.29360352 -20.66064453 206.41455078 C-23.31546908 203.81732308 -25.94219191 201.1945146 -28.5625 198.5625 C-29.46291016 197.66595703 -30.36332031 196.76941406 -31.29101562 195.84570312 C-32.57202148 194.56276367 -32.57202148 194.56276367 -33.87890625 193.25390625 C-34.6479126 192.48377197 -35.41691895 191.7136377 -36.20922852 190.92016602 C-38.52945627 188.43228718 -38.95561545 187.27740345 -39.5 183.875 C-38.28312492 174.44421817 -26.19164117 166.07556739 -19.62311172 159.54794693 C-17.53635353 157.47406304 -15.45283268 155.39697401 -13.37008667 153.31906128 C-8.95787446 148.91820953 -4.5417155 144.52133158 -0.125 140.125 C5.01588606 135.007717 10.15514061 129.88881713 15.29022598 124.76571274 C17.34509095 122.71733924 19.40293729 120.67199303 21.46090698 118.6267395 C22.71220305 117.37907357 23.96336027 116.13126838 25.21435547 114.88330078 C26.07611137 114.02929436 26.07611137 114.02929436 26.95527649 113.15803528 C29.83422562 110.34968099 29.83422562 110.34968099 32 107 C31.47210373 106.79709351 30.94420746 106.59418701 30.40031433 106.38513184 C26.96012993 104.39992978 24.36936286 101.63862531 21.5949707 98.83789062 C20.9620108 98.20682907 20.3290509 97.57576752 19.6769104 96.92558289 C17.58828431 94.84065833 15.50694021 92.74862619 13.42578125 90.65625 C11.97694249 89.20621914 10.52773388 87.75655773 9.07817078 86.30725098 C6.04306436 83.27058085 3.01134679 80.23058092 -0.01782227 77.18798828 C-3.90681737 73.28198086 -7.8023856 69.38261132 -11.70027447 65.48548126 C-14.69189945 62.49358482 -17.68091455 59.49909273 -20.6690464 56.50370789 C-22.10501706 55.06454867 -23.54159983 53.62599995 -24.97879601 52.18806458 C-26.98278221 50.18191809 -28.98344526 48.17251814 -30.9831543 46.16210938 C-31.58107285 45.56464401 -32.17899139 44.96717865 -32.79502869 44.35160828 C-37.7890712 39.31830501 -37.7890712 39.31830501 -38.5 34.875 C-37.3676142 26.09901005 -27.30664892 19.15000639 -21.18237305 13.05200195 C-19.66921334 11.54427904 -18.16157115 10.03118241 -16.65429688 8.51757812 C-15.69042526 7.55436608 -14.72624416 6.5914636 -13.76171875 5.62890625 C-12.4617395 4.3306189 -12.4617395 4.3306189 -11.13549805 3.00610352 C-7.48936606 -0.4191013 -4.97148447 -0.64148187 0 0 Z " fill="#C9D0EA" transform="translate(100,179)"/>
<path d="M0 0 C55.44 0 110.88 0 168 0 C168 21.12 168 42.24 168 64 C112.56 64 57.12 64 0 64 C0 42.88 0 21.76 0 0 Z " fill="#6F748D" transform="translate(176,64)"/>
<path d="M0 0 C20.49702177 -0.09029831 40.99388247 -0.16398083 61.49105263 -0.20724869 C71.00826768 -0.22787279 80.52535037 -0.2559905 90.04248047 -0.30175781 C98.33774192 -0.34163021 106.6329075 -0.36743392 114.92826211 -0.37635398 C119.32051675 -0.38156805 123.71249713 -0.39381979 128.10466385 -0.42292023 C132.23985321 -0.45009575 136.37465567 -0.45844073 140.50992584 -0.45243073 C142.02645598 -0.45353001 143.54299922 -0.46147142 145.05945206 -0.4768219 C147.13350108 -0.49678465 149.20609783 -0.4919181 151.28018188 -0.48101807 C152.43979746 -0.48470524 153.59941303 -0.48839241 154.79416847 -0.49219131 C158.82735505 0.12702382 160.86599275 1.40317382 164 4 C175.11862993 20.6779449 168 43.95560483 168 64 C112.56 64 57.12 64 0 64 C0 42.88 0 21.76 0 0 Z " fill="#494D64" transform="translate(344,64)"/>
<path d="M0 0 C0.64988026 -0.00623996 1.29976052 -0.01247993 1.96933413 -0.01890898 C4.14524992 -0.03485395 6.32004774 -0.02223024 8.49597168 -0.00964355 C10.05656081 -0.01506406 11.61714481 -0.02218632 13.17771912 -0.03088379 C17.41534646 -0.0491288 21.65258453 -0.04204489 25.89021873 -0.02936745 C30.3233076 -0.01924582 34.75636296 -0.02863079 39.18945312 -0.03491211 C46.63429758 -0.04219097 54.07898335 -0.0325946 61.52380371 -0.0135498 C70.13310923 0.00821945 78.74203585 0.00116824 87.35133219 -0.02085543 C94.74083148 -0.03900267 102.13021667 -0.04157107 109.51973104 -0.03110075 C113.93416143 -0.02486208 118.34841368 -0.02404038 122.76283264 -0.0372467 C126.91292128 -0.04879483 131.06252106 -0.04079886 135.21255684 -0.01766968 C136.73635102 -0.01237697 138.26018628 -0.013906 139.78396416 -0.02272034 C141.86296198 -0.03363832 143.9403896 -0.01996097 146.01928711 0 C147.18292534 0.0015081 148.34656357 0.0030162 149.54546356 0.00457001 C153.13088029 0.61343038 154.30630995 1.67262642 156.50964355 4.50793457 C157.010849 6.48731995 157.010849 6.48731995 157.01135254 8.58630371 C157.02073349 9.37714859 157.03011444 10.16799347 157.03977966 10.98280334 C157.0229287 12.25014565 157.0229287 12.25014565 157.0057373 13.54309082 C157.00719254 14.41815781 157.00864777 15.29322479 157.01014709 16.19480896 C157.00848953 18.04148698 156.99694418 19.88817901 156.97619629 21.73474121 C156.94720916 24.56403095 156.95559614 27.39145046 156.96862793 30.2208252 C156.96239132 32.01575619 156.95400099 33.81068126 156.9432373 35.60559082 C156.94617294 36.45250992 156.94910858 37.29942902 156.95213318 38.17201233 C156.85715174 44.07040111 156.85715174 44.07040111 155.17189026 46.19224548 C151.77866412 48.87802647 148.41120666 48.64156472 144.26016235 48.66183472 C142.95065613 48.67043518 141.6411499 48.67903564 140.29196167 48.68789673 C138.83734171 48.69233182 137.38272132 48.69663019 135.92810059 48.70080566 C134.39884251 48.70870772 132.86958629 48.71697673 131.34033203 48.72558594 C126.31605812 48.7517883 121.29177592 48.76710912 116.26745605 48.78137207 C114.53807444 48.78673198 112.80869288 48.79210949 111.07931137 48.79750443 C103.88711074 48.81912814 96.69491235 48.83786606 89.50268745 48.84912682 C79.19251055 48.86537554 68.88270992 48.89858128 58.57267487 48.95552766 C51.32418849 48.994201 44.07580288 49.01375624 36.82721603 49.01904738 C32.49702701 49.02270368 28.16723947 49.0347545 23.83716202 49.06715012 C19.76423091 49.09718617 15.69194518 49.10355891 11.618927 49.09176636 C10.12454703 49.09154526 8.63013749 49.0998802 7.13586044 49.1174202 C5.09506328 49.14007075 3.05397408 49.12884514 1.01309204 49.11593628 C-0.69974629 49.1209015 -0.69974629 49.1209015 -2.44718742 49.12596703 C-6.43726909 48.31562756 -7.9406701 46.60471153 -10.49035645 43.50793457 C-11.11854553 41.45298767 -11.11854553 41.45298767 -11.12145996 39.42370605 C-11.13399307 38.65618515 -11.14652618 37.88866425 -11.15943909 37.09788513 C-11.14618088 36.28316238 -11.13292267 35.46843964 -11.1192627 34.62902832 C-11.12167465 33.779944 -11.12408661 32.93085968 -11.12657166 32.05604553 C-11.12559485 30.26660476 -11.1122408 28.47713316 -11.08728027 26.68786621 C-11.05291894 23.95041308 -11.06664089 21.21618054 -11.08605957 18.4786377 C-11.07916212 16.73708752 -11.06949065 14.99554565 -11.0567627 13.25402832 C-11.06172256 12.43728134 -11.06668243 11.62053436 -11.0717926 10.77903748 C-11.00155682 7.38898271 -10.90298013 5.0695511 -8.86266327 2.29250336 C-5.74609974 -0.05193284 -3.88074094 0.00502953 0 0 Z " fill="#CAD1EB" transform="translate(251.4903564453125,351.4920654296875)"/>
<path d="M0 0 C2.88623499 1.30252404 4.89560882 2.66524688 7.08105469 4.94921875 C7.65555359 5.54323486 8.23005249 6.13725098 8.82196045 6.74926758 C9.73766815 7.70869263 9.73766815 7.70869263 10.671875 8.6875 C11.98898242 10.0396481 13.30671045 11.39119191 14.625 12.7421875 C16.68985742 14.86887287 18.74973185 16.9997197 20.79882812 19.14160156 C22.7845135 21.21233313 24.78893623 23.26337049 26.796875 25.3125 C27.39924988 25.9521167 28.00162476 26.5917334 28.62225342 27.25073242 C32.85838305 31.53670913 36.04061599 33.02289054 42 34 C37.94087025 38.86911075 33.68902338 43.45547025 29.20019531 47.92919922 C28.22346611 48.9085569 28.22346611 48.9085569 27.227005 49.90769958 C25.09653558 52.04253341 22.96247357 54.17373247 20.828125 56.3046875 C19.33918898 57.7942977 17.85040139 59.28405628 16.36175537 60.7739563 C13.25337172 63.88380922 10.14319885 66.9918585 7.03173828 70.09863281 C3.03787529 74.08677409 -0.95144828 78.07942134 -4.93946457 82.07340813 C-8.00704781 85.14459662 -11.0769985 88.21340968 -14.14768219 91.28149796 C-15.62047032 92.753618 -17.09251322 94.22648401 -18.56380463 95.70009995 C-20.61272303 97.75154692 -22.66480037 99.79977978 -24.71777344 101.84716797 C-25.3276561 102.45907486 -25.93753876 103.07098175 -26.56590271 103.70143127 C-31.75773507 108.86701882 -31.75773507 108.86701882 -35.83032227 109.30297852 C-39.76241833 108.92712307 -40.90924264 107.87679478 -43.71484375 105.15234375 C-44.5744873 104.32976074 -45.43413086 103.50717773 -46.31982422 102.65966797 C-47.20428223 101.78197754 -48.08874023 100.90428711 -49 100 C-50.31701904 98.72020264 -50.31701904 98.72020264 -51.66064453 97.41455078 C-54.31546908 94.81732308 -56.94219191 92.1945146 -59.5625 89.5625 C-60.46291016 88.66595703 -61.36332031 87.76941406 -62.29101562 86.84570312 C-63.14501953 85.99041016 -63.99902344 85.13511719 -64.87890625 84.25390625 C-65.6479126 83.48377197 -66.41691895 82.7136377 -67.20922852 81.92016602 C-69.52945627 79.43228718 -69.95561545 78.27740345 -70.5 74.875 C-69.20937792 64.87267884 -55.4984955 55.37351305 -48.53515625 48.4375 C-47.13246609 47.03667785 -45.72999872 45.63563257 -44.32774353 44.234375 C-40.6590246 40.56945113 -36.98731122 36.90754192 -33.31494141 33.24627686 C-29.55904022 29.50065494 -25.80601289 25.75215587 -22.05273438 22.00390625 C-14.70461446 14.66647047 -7.3533242 7.33221995 0 0 Z " fill="#9299B6" transform="translate(131,288)"/>
</svg>
