<svg xmlns="http://www.w3.org/2000/svg" viewBox="0 0 612.33 103.52"><title>Recurso 1</title><g id="Capa_2" data-name="Capa 2"><g id="Capa_1-2" data-name="Capa 1"><path d="M0,.51H51.69V17.69H20.5v24.4H47.36l.36.21-.22.37c-.1,3.46-.14,5.48-.14,6.06h-3v.14q0,1.82-.36,8h2.81c0,1.92-.17,2.88-.5,2.88H27.43v3.54H17.54v1.88h3v9h9.82V75.8H20.5v25l-.21,1.15H9.75v1.59H.36a.32.32,0,0,1-.36-.36v-2.6l.14-1.73H5.2v-2.6H0V86.34H2.45V50H6.57V47.29H0Zm10.9,73.7V75.8h9.39V74.21Z"/><path d="M90.17.29h.21q23.1,0,28.23,15.09Q121,20.93,121,31.11l-16.75,2.24L104,33v-.36q0-12.2-8.23-14.51a26,26,0,0,0-6.14-.87q-8.88,0-11.48,9.6a65.49,65.49,0,0,0-1.51,15V50q0,14.07.36,21.22h4.26V85.55h20.5V60.93h-13V47.72h39.05v2.89h-5.12V65.84H112.26v4.84h5.12V99.91H61.58V84.32H55.23V83H58V81.43h3.61V75.58H51.83V63.1h4.62q-.14-5.49-.14-6.29,0-32.76,3.54-39.56c.72-2.88,2.72-6,6-9.45Q73.13.29,90.17.29ZM76,101.5H97.17v2H76Z"/><path d="M128.5.14h19.93V54.79H139v2.89h9.39V67.93q0,14,5,16.32a11.55,11.55,0,0,0,6.28,1.59h6.13V67.72h5.42V.14H191V63.67h-7.15v4.62H191c-.1,1.5-.15,2.63-.15,3.4V92H180.48v11.55h-46.2V89.23H130V46.49H128.5Zm19.93,54.65h11.26v2.89H148.43Z"/><path d="M195.06.29h54.36V13.36q0,.42-8.3,18h18.41V36H239.17q-.21,0-5.56,11.12-.15.8-5.34,11.62h3Q225.61,70.9,225,71.76h-8.88v4h7.15l-4.84,10.39h18.91v5.42h17v11.62a.32.32,0,0,1-.36.36H225.31v-1.73H195.06V91.9h4.33V80.78q1.23-3.16,10.47-22.09h-3v-.14l19.64-41H195.06ZM231.37,31.4V36h7.3q.36,0,2.23-4.55Z"/><path d="M257.36.29h54.36V13.36q0,.42-8.3,18h18.41V36H301.47q-.21,0-5.56,11.12-.14.8-5.34,11.62h3q-5.62,12.21-6.28,13.07h-8.88v4h7.15l-4.84,10.39h18.91v5.42h17v11.62a.32.32,0,0,1-.36.36H287.61v-1.73H257.36V91.9h4.33V80.78q1.23-3.16,10.47-22.09h-3v-.14l19.64-41H257.36ZM293.67,31.4V36H301q.36,0,2.23-4.55Z"/><path d="M359.37.22q22.23,0,29.24,15.52,4,7.57,4,29.24v.5h-7.66V49h7.66V86.27h-5.06V99.7h-10v3.82H342.4V99.7h-4.26V86.27h-9V75.73h5.34V70.17h-5.34v5.56H316.34V70.17H326q-.15-12.63-.15-19.35V42q0-24.56,8.3-32.85Q341.76.21,359.37.22ZM346.74,35.81H347l-.21.29v9.38H339V49h7.73q-.15,22.3-.15,33.64v3.68h17.25v-5.7h8v-.22q0-10.55-.15-29.38c0-.53.05-1.85.15-4q0-20.37-2.39-25-2.44-4.48-9-4.48h-2.53q-7.86,0-9.74,6.93A68.71,68.71,0,0,0,346.74,35.81Zm45.84,9.67H405V49H392.58Z"/><path d="M396.19,72.84h9.31v3.25h23v6.79h14.15V76.09h30.61v6.79h-21v18.4H428.53v2.24H405.72a.31.31,0,0,1-.36-.36V76.09h-9.17ZM405.36.29h31.47q19.64,0,27,13.35,6.35,10.4,6.35,34.51h3.11V72.84H442.68V70h9.6V48.15h-2.82v-9q0-15.24-6.78-19.42-4-2.24-12.78-2.24h-4.26V47.65h2.89V72.84H407.88V49.52h-2.52Zm23.17,72.55h14.15v3.25H428.53Zm44.76,0h20.28v3.25H473.29Z"/><path d="M482.24.79h50.61V17.61a.33.33,0,0,1-.37.37h-30V40.21h26.93v.22c0,.62-.1,4.26-.29,10.9-.14,0-.21.05-.21.14h1.22v5.2H506.78V77.75H500.5v2.09h6.28v6.43h26.43v2.38h-2.1v12.63H499.49v2.24h-15V66.71h-2.24v-13H465.78V51.47h16.46Zm.14,50.68v2.24h8.45V51.47Z"/><path d="M541,0h22q.21,1.8,8.3,40.35h4.55v4h-5.49v-4h-7.72v4h7.72V62.88h2.46v9.6h6.06V58.33h2.31v-14h4.33v-4h-3.39Q590.17,1.8,590.38,0h22q-11.91,51.84-11.91,52.84v18h-6.07v3.54h4.55V85h-8.16v18.55H565c-.24,0-.94-2.64-2.09-7.94h6.64V91.25h-7.36q-.51,0-2.1-8.37Q559.34,80.35,541,0Z"/></g></g></svg>